<?xml version="1.0" encoding="UTF-8" standalone="no"?>
<!DOCTYPE svg PUBLIC "-//W3C//DTD SVG 1.1//EN"
 "http://www.w3.org/Graphics/SVG/1.1/DTD/svg11.dtd">
<!-- Generated by graphviz version 2.38.0 (20140413.2041)
 -->
<!-- Title: Classes Pages: 1 -->
<svg width="1019pt" height="715pt"
 viewBox="0.00 0.00 1019.00 715.00" xmlns="http://www.w3.org/2000/svg" xmlns:xlink="http://www.w3.org/1999/xlink">
<g id="graph0" class="graph" transform="scale(1 1) rotate(0) translate(4 711)">
<title>Classes</title>
<polygon fill="white" stroke="none" points="-4,4 -4,-711 1015,-711 1015,4 -4,4"/>
<!-- IOSCPUID -->
<g id="node1" class="node"><title>IOSCPUID</title>
<g id="a_node1"><a xlink:href="ooOS.CPUID.IOSCPUID.html" xlink:title="IOSCPUID">
<ellipse fill="none" stroke="black" cx="627.142" cy="-510.021" rx="53.0913" ry="18"/>
<text text-anchor="middle" x="627.142" y="-506.321" font-family="Times New Roman,serif" font-size="14.00">IOSCPUID</text>
</a>
</g>
</g>
<!-- IInterface -->
<g id="node2" class="node"><title>IInterface</title>
<ellipse fill="none" stroke="black" cx="743.927" cy="-593.304" rx="45.4919" ry="18"/>
<text text-anchor="middle" x="743.927" y="-589.604" font-family="Times New Roman,serif" font-size="14.00">IInterface</text>
</g>
<!-- IOSCPUID&#45;&gt;IInterface -->
<g id="edge1" class="edge"><title>IOSCPUID&#45;&gt;IInterface</title>
<path fill="none" stroke="black" d="M650.215,-526.475C668.281,-539.359 693.573,-557.395 713.329,-571.483"/>
<polygon fill="black" stroke="black" points="711.52,-574.492 721.694,-577.449 715.585,-568.793 711.52,-574.492"/>
</g>
<!-- IOSCPUSpeed -->
<g id="node3" class="node"><title>IOSCPUSpeed</title>
<g id="a_node3"><a xlink:href="ooOS.CPUSpeed.IOSCPUSpeed.html" xlink:title="IOSCPUSpeed">
<ellipse fill="none" stroke="black" cx="756.439" cy="-546.221" rx="66.8882" ry="18"/>
<text text-anchor="middle" x="756.439" y="-542.521" font-family="Times New Roman,serif" font-size="14.00">IOSCPUSpeed</text>
</a>
</g>
</g>
<!-- IOSCPUSpeed&#45;&gt;IInterface -->
<g id="edge2" class="edge"><title>IOSCPUSpeed&#45;&gt;IInterface</title>
<path fill="none" stroke="black" d="M751.637,-564.29C751.517,-564.743 751.395,-565.2 751.273,-565.659"/>
<polygon fill="black" stroke="black" points="747.881,-564.797 748.695,-575.361 754.646,-566.595 747.881,-564.797"/>
</g>
<!-- IOSDriveSerial -->
<g id="node4" class="node"><title>IOSDriveSerial</title>
<g id="a_node4"><a xlink:href="ooOS.DriveSerial.IOSDriveSerial.html" xlink:title="IOSDriveSerial">
<ellipse fill="none" stroke="black" cx="767.333" cy="-638.439" rx="65.7887" ry="18"/>
<text text-anchor="middle" x="767.333" y="-634.739" font-family="Times New Roman,serif" font-size="14.00">IOSDriveSerial</text>
</a>
</g>
</g>
<!-- IOSDriveSerial&#45;&gt;IInterface -->
<g id="edge3" class="edge"><title>IOSDriveSerial&#45;&gt;IInterface</title>
<path fill="none" stroke="black" d="M758.082,-620.6C757.98,-620.403 757.878,-620.206 757.775,-620.008"/>
<polygon fill="black" stroke="black" points="760.821,-618.279 753.11,-611.013 754.607,-621.501 760.821,-618.279"/>
</g>
<!-- IOSEnvironmentInfo -->
<g id="node5" class="node"><title>IOSEnvironmentInfo</title>
<g id="a_node5"><a xlink:href="ooOS.Environment.Info.IOSEnvironmentInfo.html" xlink:title="IOSEnvironmentInfo">
<ellipse fill="none" stroke="black" cx="924.158" cy="-576.587" rx="87.1846" ry="18"/>
<text text-anchor="middle" x="924.158" y="-572.887" font-family="Times New Roman,serif" font-size="14.00">IOSEnvironmentInfo</text>
</a>
</g>
</g>
<!-- IOSEnvironmentInfo&#45;&gt;IInterface -->
<g id="edge4" class="edge"><title>IOSEnvironmentInfo&#45;&gt;IInterface</title>
<path fill="none" stroke="black" d="M844.582,-583.968C829.102,-585.404 813.201,-586.878 798.741,-588.22"/>
<polygon fill="black" stroke="black" points="798.127,-584.761 788.493,-589.17 798.774,-591.732 798.127,-584.761"/>
</g>
<!-- IOSInfo -->
<g id="node6" class="node"><title>IOSInfo</title>
<g id="a_node6"><a xlink:href="ooOS.Info.Intf.IOSInfo.html" xlink:title="IOSInfo">
<ellipse fill="none" stroke="black" cx="656.503" cy="-689.253" rx="40.8928" ry="18"/>
<text text-anchor="middle" x="656.503" y="-685.553" font-family="Times New Roman,serif" font-size="14.00">IOSInfo</text>
</a>
</g>
</g>
<!-- IOSInfo&#45;&gt;IInterface -->
<g id="edge5" class="edge"><title>IOSInfo&#45;&gt;IInterface</title>
<path fill="none" stroke="black" d="M671.731,-672.54C685.476,-657.454 705.877,-635.064 721.49,-617.929"/>
<polygon fill="black" stroke="black" points="724.137,-620.22 728.285,-610.471 718.962,-615.506 724.137,-620.22"/>
</g>
<!-- TEnvironmentValueList -->
<g id="node7" class="node"><title>TEnvironmentValueList</title>
<g id="a_node7"><a xlink:href="ooOS.Environment.Info.TEnvironmentValueList.html" xlink:title="TEnvironmentValueList">
<ellipse fill="none" stroke="black" cx="588.564" cy="-18.3726" rx="96.6831" ry="18"/>
<text text-anchor="middle" x="588.564" y="-14.6726" font-family="Times New Roman,serif" font-size="14.00">TEnvironmentValueList</text>
</a>
</g>
</g>
<!-- TDictionary -->
<g id="node8" class="node"><title>TDictionary</title>
<ellipse fill="none" stroke="black" cx="625.034" cy="-64.9262" rx="53.8905" ry="18"/>
<text text-anchor="middle" x="625.034" y="-61.2262" font-family="Times New Roman,serif" font-size="14.00">TDictionary</text>
</g>
<!-- TEnvironmentValueList&#45;&gt;TDictionary -->
<g id="edge6" class="edge"><title>TEnvironmentValueList&#45;&gt;TDictionary</title>
<path fill="none" stroke="black" d="M602.56,-36.2383C603.374,-37.2768 604.199,-38.3305 605.029,-39.3905"/>
<polygon fill="black" stroke="black" points="602.454,-41.7784 611.376,-47.492 607.964,-37.4615 602.454,-41.7784"/>
</g>
<!-- TOSComputerName -->
<g id="node9" class="node"><title>TOSComputerName</title>
<g id="a_node9"><a xlink:href="ooOS.ComputerName.TOSComputerName.html" xlink:title="TOSComputerName">
<ellipse fill="none" stroke="black" cx="307.691" cy="-461.801" rx="86.3847" ry="18"/>
<text text-anchor="middle" x="307.691" y="-458.101" font-family="Times New Roman,serif" font-size="14.00">TOSComputerName</text>
</a>
</g>
</g>
<!-- TInterfacedObject -->
<g id="node10" class="node"><title>TInterfacedObject</title>
<ellipse fill="none" stroke="black" cx="359.896" cy="-229.919" rx="77.1866" ry="18"/>
<text text-anchor="middle" x="359.896" y="-226.219" font-family="Times New Roman,serif" font-size="14.00">TInterfacedObject</text>
</g>
<!-- TOSComputerName&#45;&gt;TInterfacedObject -->
<g id="edge7" class="edge"><title>TOSComputerName&#45;&gt;TInterfacedObject</title>
<path fill="none" stroke="black" d="M311.788,-443.605C320.86,-403.306 342.702,-306.291 353.555,-258.084"/>
<polygon fill="black" stroke="black" points="357.037,-258.555 355.819,-248.03 350.208,-257.017 357.037,-258.555"/>
</g>
<!-- TOSCPUID -->
<g id="node11" class="node"><title>TOSCPUID</title>
<g id="a_node11"><a xlink:href="ooOS.CPUID.TOSCPUID.html" xlink:title="TOSCPUID">
<ellipse fill="none" stroke="black" cx="220.099" cy="-119.278" rx="55.7903" ry="18"/>
<text text-anchor="middle" x="220.099" y="-115.578" font-family="Times New Roman,serif" font-size="14.00">TOSCPUID</text>
</a>
</g>
</g>
<!-- TOSCPUID&#45;&gt;TInterfacedObject -->
<g id="edge8" class="edge"><title>TOSCPUID&#45;&gt;TInterfacedObject</title>
<path fill="none" stroke="black" d="M241.331,-136.082C265.005,-154.818 303.464,-185.257 330.133,-206.364"/>
<polygon fill="black" stroke="black" points="327.989,-209.13 338.002,-212.592 332.333,-203.641 327.989,-209.13"/>
</g>
<!-- TOSCPUSpeed -->
<g id="node12" class="node"><title>TOSCPUSpeed</title>
<g id="a_node12"><a xlink:href="ooOS.CPUSpeed.TOSCPUSpeed.html" xlink:title="TOSCPUSpeed">
<ellipse fill="none" stroke="black" cx="330.047" cy="-275.44" rx="69.5877" ry="18"/>
<text text-anchor="middle" x="330.047" y="-271.74" font-family="Times New Roman,serif" font-size="14.00">TOSCPUSpeed</text>
</a>
</g>
</g>
<!-- TOSCPUSpeed&#45;&gt;TInterfacedObject -->
<g id="edge9" class="edge"><title>TOSCPUSpeed&#45;&gt;TInterfacedObject</title>
<path fill="none" stroke="black" d="M341.844,-257.449C342.105,-257.052 342.367,-256.652 342.63,-256.251"/>
<polygon fill="black" stroke="black" points="345.628,-258.062 348.184,-247.78 339.774,-254.223 345.628,-258.062"/>
</g>
<!-- TOSCPUVendor -->
<g id="node13" class="node"><title>TOSCPUVendor</title>
<g id="a_node13"><a xlink:href="ooOS.CPUVendor.TOSCPUVendor.html" xlink:title="TOSCPUVendor">
<ellipse fill="none" stroke="black" cx="563.537" cy="-301.668" rx="74.187" ry="18"/>
<text text-anchor="middle" x="563.537" y="-297.968" font-family="Times New Roman,serif" font-size="14.00">TOSCPUVendor</text>
</a>
</g>
</g>
<!-- TOSCPUVendor&#45;&gt;TInterfacedObject -->
<g id="edge10" class="edge"><title>TOSCPUVendor&#45;&gt;TInterfacedObject</title>
<path fill="none" stroke="black" d="M521.342,-286.802C489.745,-275.669 446.318,-260.369 412.463,-248.44"/>
<polygon fill="black" stroke="black" points="413.332,-245.036 402.737,-245.014 411.006,-251.638 413.332,-245.036"/>
</g>
<!-- TOSDriveSerial -->
<g id="node14" class="node"><title>TOSDriveSerial</title>
<g id="a_node14"><a xlink:href="ooOS.DriveSerial.TOSDriveSerial.html" xlink:title="TOSDriveSerial">
<ellipse fill="none" stroke="black" cx="169.198" cy="-336.829" rx="68.4888" ry="18"/>
<text text-anchor="middle" x="169.198" y="-333.129" font-family="Times New Roman,serif" font-size="14.00">TOSDriveSerial</text>
</a>
</g>
</g>
<!-- TOSDriveSerial&#45;&gt;TInterfacedObject -->
<g id="edge11" class="edge"><title>TOSDriveSerial&#45;&gt;TInterfacedObject</title>
<path fill="none" stroke="black" d="M198.576,-320.358C231.516,-301.892 285.059,-271.874 321.341,-251.534"/>
<polygon fill="black" stroke="black" points="323.158,-254.528 330.17,-246.585 319.735,-248.422 323.158,-254.528"/>
</g>
<!-- TOSLocalIP -->
<g id="node15" class="node"><title>TOSLocalIP</title>
<g id="a_node15"><a xlink:href="ooOS.LocalIP.TOSLocalIP.html" xlink:title="TOSLocalIP">
<ellipse fill="none" stroke="black" cx="570.16" cy="-170.768" rx="57.6901" ry="18"/>
<text text-anchor="middle" x="570.16" y="-167.068" font-family="Times New Roman,serif" font-size="14.00">TOSLocalIP</text>
</a>
</g>
</g>
<!-- TOSLocalIP&#45;&gt;TInterfacedObject -->
<g id="edge12" class="edge"><title>TOSLocalIP&#45;&gt;TInterfacedObject</title>
<path fill="none" stroke="black" d="M527.102,-182.881C496.046,-191.618 453.731,-203.522 419.44,-213.168"/>
<polygon fill="black" stroke="black" points="418.217,-209.877 409.538,-215.954 420.112,-216.615 418.217,-209.877"/>
</g>
<!-- TOSLocalMacAddress -->
<g id="node16" class="node"><title>TOSLocalMacAddress</title>
<g id="a_node16"><a xlink:href="ooOS.LocalMacAddress.TOSLocalMacAddress.html" xlink:title="TOSLocalMacAddress">
<ellipse fill="none" stroke="black" cx="407.044" cy="-184.116" rx="96.3833" ry="18"/>
<text text-anchor="middle" x="407.044" y="-180.416" font-family="Times New Roman,serif" font-size="14.00">TOSLocalMacAddress</text>
</a>
</g>
</g>
<!-- TOSLocalMacAddress&#45;&gt;TInterfacedObject -->
<g id="edge13" class="edge"><title>TOSLocalMacAddress&#45;&gt;TInterfacedObject</title>
<path fill="none" stroke="black" d="M388.68,-201.956C387.581,-203.024 386.467,-204.107 385.346,-205.195"/>
<polygon fill="black" stroke="black" points="382.711,-202.875 377.977,-212.354 387.589,-207.896 382.711,-202.875"/>
</g>
<!-- TOSRemoteMacAddress -->
<g id="node17" class="node"><title>TOSRemoteMacAddress</title>
<g id="a_node17"><a xlink:href="ooOS.RemoteMacAddress.TOSRemoteMacAddress.html" xlink:title="TOSRemoteMacAddress">
<ellipse fill="none" stroke="black" cx="103.64" cy="-189.788" rx="103.982" ry="18"/>
<text text-anchor="middle" x="103.64" y="-186.088" font-family="Times New Roman,serif" font-size="14.00">TOSRemoteMacAddress</text>
</a>
</g>
</g>
<!-- TOSRemoteMacAddress&#45;&gt;TInterfacedObject -->
<g id="edge14" class="edge"><title>TOSRemoteMacAddress&#45;&gt;TInterfacedObject</title>
<path fill="none" stroke="black" d="M180.873,-201.883C213.994,-207.07 252.533,-213.106 285.351,-218.245"/>
<polygon fill="black" stroke="black" points="284.919,-221.72 295.34,-219.81 286.002,-214.804 284.919,-221.72"/>
</g>
<!-- TOSUserName -->
<g id="node18" class="node"><title>TOSUserName</title>
<g id="a_node18"><a xlink:href="ooOS.UserName.TOSUserName.html" xlink:title="TOSUserName">
<ellipse fill="none" stroke="black" cx="354.125" cy="-18.1015" rx="66.8882" ry="18"/>
<text text-anchor="middle" x="354.125" y="-14.4015" font-family="Times New Roman,serif" font-size="14.00">TOSUserName</text>
</a>
</g>
</g>
<!-- TOSUserName&#45;&gt;TInterfacedObject -->
<g id="edge15" class="edge"><title>TOSUserName&#45;&gt;TInterfacedObject</title>
<path fill="none" stroke="black" d="M354.617,-36.161C355.625,-73.1311 357.928,-157.666 359.131,-201.849"/>
<polygon fill="black" stroke="black" points="355.634,-202.005 359.405,-211.906 362.631,-201.814 355.634,-202.005"/>
</g>
<!-- TWinEnvironmentInfo -->
<g id="node19" class="node"><title>TWinEnvironmentInfo</title>
<g id="a_node19"><a xlink:href="ooOS.Environment.Info.TWinEnvironmentInfo.html" xlink:title="TWinEnvironmentInfo">
<ellipse fill="none" stroke="black" cx="506.729" cy="-422.006" rx="92.8835" ry="18"/>
<text text-anchor="middle" x="506.729" y="-418.306" font-family="Times New Roman,serif" font-size="14.00">TWinEnvironmentInfo</text>
</a>
</g>
</g>
<!-- TWinEnvironmentInfo&#45;&gt;TInterfacedObject -->
<g id="edge16" class="edge"><title>TWinEnvironmentInfo&#45;&gt;TInterfacedObject</title>
<path fill="none" stroke="black" d="M492.916,-403.935C466.832,-369.812 410.237,-295.775 379.959,-256.166"/>
<polygon fill="black" stroke="black" points="382.42,-253.622 373.566,-247.802 376.858,-257.873 382.42,-253.622"/>
</g>
</g>
</svg>
