<?xml version="1.0" encoding="UTF-8" standalone="no"?>
<!DOCTYPE svg PUBLIC "-//W3C//DTD SVG 1.1//EN"
 "http://www.w3.org/Graphics/SVG/1.1/DTD/svg11.dtd">
<!-- Generated by graphviz version 2.38.0 (20140413.2041)
 -->
<!-- Title: Uses Pages: 1 -->
<svg width="635pt" height="604pt"
 viewBox="0.00 0.00 635.05 604.27" xmlns="http://www.w3.org/2000/svg" xmlns:xlink="http://www.w3.org/1999/xlink">
<g id="graph0" class="graph" transform="scale(1 1) rotate(0) translate(4 600.274)">
<title>Uses</title>
<polygon fill="white" stroke="none" points="-4,4 -4,-600.274 631.051,-600.274 631.051,4 -4,4"/>
<!-- ooOS.ComputerName -->
<g id="node1" class="node"><title>ooOS.ComputerName</title>
<g id="a_node1"><a xlink:href="ooOS.ComputerName.html" xlink:title="ooOS.ComputerName">
<ellipse fill="none" stroke="black" cx="307.676" cy="-286.274" rx="92.8835" ry="18"/>
<text text-anchor="middle" x="307.676" y="-282.574" font-family="Times New Roman,serif" font-size="14.00">ooOS.ComputerName</text>
</a>
</g>
</g>
<!-- Windows -->
<g id="node2" class="node"><title>Windows</title>
<ellipse fill="none" stroke="black" cx="540.608" cy="-368.274" rx="46.2923" ry="18"/>
<text text-anchor="middle" x="540.608" y="-364.574" font-family="Times New Roman,serif" font-size="14.00">Windows</text>
</g>
<!-- ooOS.ComputerName&#45;&gt;Windows -->
<g id="edge1" class="edge"><title>ooOS.ComputerName&#45;&gt;Windows</title>
<path fill="none" stroke="black" d="M353.202,-302.085C394.37,-316.703 455.182,-338.296 496.042,-352.805"/>
<polygon fill="black" stroke="black" points="495.125,-356.193 505.72,-356.241 497.467,-349.597 495.125,-356.193"/>
</g>
<!-- SysUtils -->
<g id="node3" class="node"><title>SysUtils</title>
<ellipse fill="none" stroke="black" cx="540.608" cy="-295.274" rx="40.8928" ry="18"/>
<text text-anchor="middle" x="540.608" y="-291.574" font-family="Times New Roman,serif" font-size="14.00">SysUtils</text>
</g>
<!-- ooOS.ComputerName&#45;&gt;SysUtils -->
<g id="edge2" class="edge"><title>ooOS.ComputerName&#45;&gt;SysUtils</title>
<path fill="none" stroke="black" d="M398.953,-289.793C429.776,-290.994 463.117,-292.293 489.599,-293.325"/>
<polygon fill="black" stroke="black" points="489.631,-296.829 499.76,-293.721 489.904,-289.835 489.631,-296.829"/>
</g>
<!-- ooOS.Info.Intf -->
<g id="node4" class="node"><title>ooOS.Info.Intf</title>
<g id="a_node4"><a xlink:href="ooOS.Info.Intf.html" xlink:title="ooOS.Info.Intf">
<ellipse fill="none" stroke="black" cx="540.608" cy="-178.274" rx="65.7887" ry="18"/>
<text text-anchor="middle" x="540.608" y="-174.574" font-family="Times New Roman,serif" font-size="14.00">ooOS.Info.Intf</text>
</a>
</g>
</g>
<!-- ooOS.ComputerName&#45;&gt;ooOS.Info.Intf -->
<g id="edge3" class="edge"><title>ooOS.ComputerName&#45;&gt;ooOS.Info.Intf</title>
<path fill="none" stroke="black" d="M375.039,-273.823C389.568,-270.027 404.639,-265.234 418.166,-259.274 452.247,-244.259 487.218,-219.791 510.827,-201.671"/>
<polygon fill="black" stroke="black" points="513.251,-204.219 518.988,-195.312 508.949,-198.698 513.251,-204.219"/>
</g>
<!-- ooOS.CPUID -->
<g id="node5" class="node"><title>ooOS.CPUID</title>
<g id="a_node5"><a xlink:href="ooOS.CPUID.html" xlink:title="ooOS.CPUID">
<ellipse fill="none" stroke="black" cx="307.676" cy="-524.274" rx="62.2891" ry="18"/>
<text text-anchor="middle" x="307.676" y="-520.574" font-family="Times New Roman,serif" font-size="14.00">ooOS.CPUID</text>
</a>
</g>
</g>
<!-- ooOS.CPUID&#45;&gt;Windows -->
<g id="edge4" class="edge"><title>ooOS.CPUID&#45;&gt;Windows</title>
<path fill="none" stroke="black" d="M365.809,-517.566C384.291,-512.965 403.722,-505.237 418.166,-492.274 449.31,-464.325 424.819,-435.105 454.166,-405.274 464.474,-394.796 478.24,-387.094 491.705,-381.517"/>
<polygon fill="black" stroke="black" points="493.305,-384.653 501.404,-377.823 490.813,-378.112 493.305,-384.653"/>
</g>
<!-- ooOS.CPUID&#45;&gt;SysUtils -->
<g id="edge5" class="edge"><title>ooOS.CPUID&#45;&gt;SysUtils</title>
<path fill="none" stroke="black" d="M346.584,-510.17C370.297,-499.54 399.737,-482.748 418.166,-459.274 452.025,-416.147 419.412,-383.684 454.166,-341.274 465.485,-327.462 482.08,-317.202 497.64,-309.92"/>
<polygon fill="black" stroke="black" points="499.379,-312.979 507.138,-305.765 496.574,-306.566 499.379,-312.979"/>
</g>
<!-- Math -->
<g id="node6" class="node"><title>Math</title>
<ellipse fill="none" stroke="black" cx="540.608" cy="-524.274" rx="29.4969" ry="18"/>
<text text-anchor="middle" x="540.608" y="-520.574" font-family="Times New Roman,serif" font-size="14.00">Math</text>
</g>
<!-- ooOS.CPUID&#45;&gt;Math -->
<g id="edge6" class="edge"><title>ooOS.CPUID&#45;&gt;Math</title>
<path fill="none" stroke="black" d="M370.258,-524.274C411.849,-524.274 465.462,-524.274 501.108,-524.274"/>
<polygon fill="black" stroke="black" points="501.11,-527.774 511.11,-524.274 501.11,-520.774 501.11,-527.774"/>
</g>
<!-- ooOS.CPUSpeed -->
<g id="node7" class="node"><title>ooOS.CPUSpeed</title>
<g id="a_node7"><a xlink:href="ooOS.CPUSpeed.html" xlink:title="ooOS.CPUSpeed">
<ellipse fill="none" stroke="black" cx="307.676" cy="-578.274" rx="76.0865" ry="18"/>
<text text-anchor="middle" x="307.676" y="-574.574" font-family="Times New Roman,serif" font-size="14.00">ooOS.CPUSpeed</text>
</a>
</g>
</g>
<!-- ooOS.CPUSpeed&#45;&gt;Windows -->
<g id="edge7" class="edge"><title>ooOS.CPUSpeed&#45;&gt;Windows</title>
<path fill="none" stroke="black" d="M379.909,-572.44C394.087,-568.274 407.783,-561.657 418.166,-551.274 465.423,-504.016 411.012,-456.307 454.166,-405.274 463.573,-394.15 476.946,-386.273 490.327,-380.735"/>
<polygon fill="black" stroke="black" points="491.88,-383.89 500.015,-377.103 489.423,-377.336 491.88,-383.89"/>
</g>
<!-- ooOS.CPUVendor -->
<g id="node8" class="node"><title>ooOS.CPUVendor</title>
<g id="a_node8"><a xlink:href="ooOS.CPUVendor.html" xlink:title="ooOS.CPUVendor">
<ellipse fill="none" stroke="black" cx="80.5928" cy="-405.274" rx="80.6858" ry="18"/>
<text text-anchor="middle" x="80.5928" y="-401.574" font-family="Times New Roman,serif" font-size="14.00">ooOS.CPUVendor</text>
</a>
</g>
</g>
<!-- ooOS.CPUVendor&#45;&gt;Windows -->
<g id="edge8" class="edge"><title>ooOS.CPUVendor&#45;&gt;Windows</title>
<path fill="none" stroke="black" d="M108.866,-422.203C131.549,-435.23 165.183,-452.168 197.186,-459.274 293.064,-480.565 331.574,-505.617 418.166,-459.274 443.597,-445.664 432.025,-423.762 454.166,-405.274 465.548,-395.77 479.745,-388.326 493.276,-382.687"/>
<polygon fill="black" stroke="black" points="494.926,-385.799 502.963,-378.895 492.375,-379.281 494.926,-385.799"/>
</g>
<!-- ooOS.CPUVendor&#45;&gt;SysUtils -->
<g id="edge9" class="edge"><title>ooOS.CPUVendor&#45;&gt;SysUtils</title>
<path fill="none" stroke="black" d="M111.586,-388.462C134.4,-376.376 166.922,-360.622 197.186,-351.274 224.833,-342.735 403.877,-315.468 491.48,-302.395"/>
<polygon fill="black" stroke="black" points="492.065,-305.847 501.44,-300.911 491.034,-298.923 492.065,-305.847"/>
</g>
<!-- ooOS.CPUVendor&#45;&gt;ooOS.Info.Intf -->
<g id="edge10" class="edge"><title>ooOS.CPUVendor&#45;&gt;ooOS.Info.Intf</title>
<path fill="none" stroke="black" d="M84.5605,-386.984C95.9259,-319.442 138.983,-85.7875 197.186,-43.2744 276.495,14.6555 338.491,14.1521 418.166,-43.2744 459.212,-72.8586 418.11,-115.779 454.166,-151.274 459.934,-156.953 466.887,-161.439 474.305,-164.982"/>
<polygon fill="black" stroke="black" points="473.319,-168.363 483.896,-168.984 476.015,-161.903 473.319,-168.363"/>
</g>
<!-- ooOS.CPUVendor&#45;&gt;ooOS.CPUID -->
<g id="edge11" class="edge"><title>ooOS.CPUVendor&#45;&gt;ooOS.CPUID</title>
<path fill="none" stroke="black" d="M100.588,-423.043C122.376,-442.553 159.914,-473.586 197.186,-492.274 212.579,-499.993 230.147,-506.16 246.637,-510.939"/>
<polygon fill="black" stroke="black" points="246.164,-514.439 256.736,-513.736 248.033,-507.693 246.164,-514.439"/>
</g>
<!-- ooOS.DriveSerial -->
<g id="node9" class="node"><title>ooOS.DriveSerial</title>
<g id="a_node9"><a xlink:href="ooOS.DriveSerial.html" xlink:title="ooOS.DriveSerial">
<ellipse fill="none" stroke="black" cx="307.676" cy="-232.274" rx="74.9875" ry="18"/>
<text text-anchor="middle" x="307.676" y="-228.574" font-family="Times New Roman,serif" font-size="14.00">ooOS.DriveSerial</text>
</a>
</g>
</g>
<!-- ooOS.DriveSerial&#45;&gt;Windows -->
<g id="edge12" class="edge"><title>ooOS.DriveSerial&#45;&gt;Windows</title>
<path fill="none" stroke="black" d="M375.619,-239.782C390.671,-243.816 405.823,-249.955 418.166,-259.274 443.903,-278.707 431.076,-299.761 454.166,-322.274 466.552,-334.352 482.749,-344.141 497.707,-351.535"/>
<polygon fill="black" stroke="black" points="496.277,-354.731 506.815,-355.829 499.262,-348.399 496.277,-354.731"/>
</g>
<!-- ooOS.DriveSerial&#45;&gt;ooOS.Info.Intf -->
<g id="edge13" class="edge"><title>ooOS.DriveSerial&#45;&gt;ooOS.Info.Intf</title>
<path fill="none" stroke="black" d="M361.946,-219.818C397.256,-211.561 443.625,-200.719 480.138,-192.181"/>
<polygon fill="black" stroke="black" points="481.217,-195.523 490.157,-189.838 479.623,-188.707 481.217,-195.523"/>
</g>
<!-- ooOS.Environment.Info -->
<g id="node10" class="node"><title>ooOS.Environment.Info</title>
<g id="a_node10"><a xlink:href="ooOS.Environment.Info.html" xlink:title="ooOS.Environment.Info">
<ellipse fill="none" stroke="black" cx="307.676" cy="-432.274" rx="98.5829" ry="18"/>
<text text-anchor="middle" x="307.676" y="-428.574" font-family="Times New Roman,serif" font-size="14.00">ooOS.Environment.Info</text>
</a>
</g>
</g>
<!-- ooOS.Environment.Info&#45;&gt;Windows -->
<g id="edge14" class="edge"><title>ooOS.Environment.Info&#45;&gt;Windows</title>
<path fill="none" stroke="black" d="M368.779,-418.072C384.867,-414.102 402.216,-409.667 418.166,-405.274 443.618,-398.265 471.837,-389.715 494.663,-382.6"/>
<polygon fill="black" stroke="black" points="495.919,-385.875 504.416,-379.546 493.827,-379.195 495.919,-385.875"/>
</g>
<!-- ooOS.Environment.Info&#45;&gt;SysUtils -->
<g id="edge15" class="edge"><title>ooOS.Environment.Info&#45;&gt;SysUtils</title>
<path fill="none" stroke="black" d="M386.781,-421.434C398.016,-417.557 408.893,-412.325 418.166,-405.274 444.145,-385.521 430.877,-364.137 454.166,-341.274 467.009,-328.667 484.012,-318.571 499.467,-311.086"/>
<polygon fill="black" stroke="black" points="501.223,-314.131 508.838,-306.764 498.292,-307.774 501.223,-314.131"/>
</g>
<!-- Generics.Collections -->
<g id="node11" class="node"><title>Generics.Collections</title>
<ellipse fill="none" stroke="black" cx="540.608" cy="-432.274" rx="86.3847" ry="18"/>
<text text-anchor="middle" x="540.608" y="-428.574" font-family="Times New Roman,serif" font-size="14.00">Generics.Collections</text>
</g>
<!-- ooOS.Environment.Info&#45;&gt;Generics.Collections -->
<g id="edge16" class="edge"><title>ooOS.Environment.Info&#45;&gt;Generics.Collections</title>
<path fill="none" stroke="black" d="M406.612,-432.274C418.905,-432.274 431.47,-432.274 443.731,-432.274"/>
<polygon fill="black" stroke="black" points="443.946,-435.774 453.946,-432.274 443.946,-428.774 443.946,-435.774"/>
</g>
<!-- ooOS.LocalIP -->
<g id="node12" class="node"><title>ooOS.LocalIP</title>
<g id="a_node12"><a xlink:href="ooOS.LocalIP.html" xlink:title="ooOS.LocalIP">
<ellipse fill="none" stroke="black" cx="307.676" cy="-178.274" rx="63.8893" ry="18"/>
<text text-anchor="middle" x="307.676" y="-174.574" font-family="Times New Roman,serif" font-size="14.00">ooOS.LocalIP</text>
</a>
</g>
</g>
<!-- ooOS.LocalIP&#45;&gt;Windows -->
<g id="edge17" class="edge"><title>ooOS.LocalIP&#45;&gt;Windows</title>
<path fill="none" stroke="black" d="M370.073,-182.153C387.444,-186.014 405.145,-192.972 418.166,-205.274 457.712,-242.639 419.631,-280.235 454.166,-322.274 464.97,-335.426 480.554,-345.362 495.463,-352.571"/>
<polygon fill="black" stroke="black" points="494.056,-355.776 504.609,-356.712 496.943,-349.399 494.056,-355.776"/>
</g>
<!-- ooOS.LocalIP&#45;&gt;SysUtils -->
<g id="edge19" class="edge"><title>ooOS.LocalIP&#45;&gt;SysUtils</title>
<path fill="none" stroke="black" d="M363.034,-187.226C381.101,-191.355 400.982,-197.189 418.166,-205.274 454.701,-222.464 491.187,-251.501 514.486,-271.935"/>
<polygon fill="black" stroke="black" points="512.361,-274.73 522.155,-278.77 517.019,-269.504 512.361,-274.73"/>
</g>
<!-- ooOS.LocalIP&#45;&gt;ooOS.Info.Intf -->
<g id="edge20" class="edge"><title>ooOS.LocalIP&#45;&gt;ooOS.Info.Intf</title>
<path fill="none" stroke="black" d="M371.474,-178.274C400.273,-178.274 434.636,-178.274 464.768,-178.274"/>
<polygon fill="black" stroke="black" points="464.81,-181.774 474.81,-178.274 464.81,-174.774 464.81,-181.774"/>
</g>
<!-- Winsock -->
<g id="node13" class="node"><title>Winsock</title>
<ellipse fill="none" stroke="black" cx="540.608" cy="-124.274" rx="43.5923" ry="18"/>
<text text-anchor="middle" x="540.608" y="-120.574" font-family="Times New Roman,serif" font-size="14.00">Winsock</text>
</g>
<!-- ooOS.LocalIP&#45;&gt;Winsock -->
<g id="edge18" class="edge"><title>ooOS.LocalIP&#45;&gt;Winsock</title>
<path fill="none" stroke="black" d="M357.369,-166.888C397.175,-157.58 453.114,-144.5 492.488,-135.293"/>
<polygon fill="black" stroke="black" points="493.432,-138.667 502.372,-132.981 491.838,-131.85 493.432,-138.667"/>
</g>
<!-- ooOS.LocalMacAddress -->
<g id="node14" class="node"><title>ooOS.LocalMacAddress</title>
<g id="a_node14"><a xlink:href="ooOS.LocalMacAddress.html" xlink:title="ooOS.LocalMacAddress">
<ellipse fill="none" stroke="black" cx="307.676" cy="-124.274" rx="102.882" ry="18"/>
<text text-anchor="middle" x="307.676" y="-120.574" font-family="Times New Roman,serif" font-size="14.00">ooOS.LocalMacAddress</text>
</a>
</g>
</g>
<!-- ooOS.LocalMacAddress&#45;&gt;Windows -->
<g id="edge21" class="edge"><title>ooOS.LocalMacAddress&#45;&gt;Windows</title>
<path fill="none" stroke="black" d="M392.972,-134.438C402.374,-138.492 411.092,-143.953 418.166,-151.274 472.135,-207.126 407.647,-260.081 454.166,-322.274 464.361,-335.904 479.817,-345.94 494.793,-353.097"/>
<polygon fill="black" stroke="black" points="493.445,-356.327 504.005,-357.187 496.285,-349.93 493.445,-356.327"/>
</g>
<!-- ooOS.LocalMacAddress&#45;&gt;SysUtils -->
<g id="edge23" class="edge"><title>ooOS.LocalMacAddress&#45;&gt;SysUtils</title>
<path fill="none" stroke="black" d="M386.607,-135.839C397.802,-139.623 408.713,-144.636 418.166,-151.274 441.771,-167.852 436.17,-182.732 454.166,-205.274 473.22,-229.142 497.369,-254.171 515.129,-271.759"/>
<polygon fill="black" stroke="black" points="512.729,-274.307 522.316,-278.815 517.633,-269.312 512.729,-274.307"/>
</g>
<!-- ooOS.LocalMacAddress&#45;&gt;ooOS.Info.Intf -->
<g id="edge24" class="edge"><title>ooOS.LocalMacAddress&#45;&gt;ooOS.Info.Intf</title>
<path fill="none" stroke="black" d="M369.955,-138.604C404.13,-146.595 446.494,-156.501 480.34,-164.415"/>
<polygon fill="black" stroke="black" points="479.563,-167.828 490.097,-166.697 481.157,-161.012 479.563,-167.828"/>
</g>
<!-- ooOS.LocalMacAddress&#45;&gt;Winsock -->
<g id="edge22" class="edge"><title>ooOS.LocalMacAddress&#45;&gt;Winsock</title>
<path fill="none" stroke="black" d="M410.638,-124.274C436.938,-124.274 464.186,-124.274 486.822,-124.274"/>
<polygon fill="black" stroke="black" points="486.877,-127.774 496.877,-124.274 486.877,-120.774 486.877,-127.774"/>
</g>
<!-- ooOS.RemoteMacAddress -->
<g id="node15" class="node"><title>ooOS.RemoteMacAddress</title>
<g id="a_node15"><a xlink:href="ooOS.RemoteMacAddress.html" xlink:title="ooOS.RemoteMacAddress">
<ellipse fill="none" stroke="black" cx="307.676" cy="-70.2744" rx="110.48" ry="18"/>
<text text-anchor="middle" x="307.676" y="-66.5744" font-family="Times New Roman,serif" font-size="14.00">ooOS.RemoteMacAddress</text>
</a>
</g>
</g>
<!-- ooOS.RemoteMacAddress&#45;&gt;Windows -->
<g id="edge25" class="edge"><title>ooOS.RemoteMacAddress&#45;&gt;Windows</title>
<path fill="none" stroke="black" d="M395.726,-81.2124C404.139,-85.1976 411.869,-90.431 418.166,-97.2744 486.739,-171.798 395.506,-239.721 454.166,-322.274 464.025,-336.149 479.41,-346.237 494.424,-353.366"/>
<polygon fill="black" stroke="black" points="493.108,-356.611 503.671,-357.43 495.924,-350.202 493.108,-356.611"/>
</g>
<!-- ooOS.RemoteMacAddress&#45;&gt;SysUtils -->
<g id="edge27" class="edge"><title>ooOS.RemoteMacAddress&#45;&gt;SysUtils</title>
<path fill="none" stroke="black" d="M393.294,-81.6888C402.413,-85.5587 410.973,-90.6347 418.166,-97.2744 455.345,-131.593 428.127,-161.893 454.166,-205.274 469.786,-231.298 494.089,-255.934 512.788,-272.83"/>
<polygon fill="black" stroke="black" points="510.608,-275.574 520.417,-279.578 515.246,-270.331 510.608,-275.574"/>
</g>
<!-- ooOS.RemoteMacAddress&#45;&gt;ooOS.Info.Intf -->
<g id="edge28" class="edge"><title>ooOS.RemoteMacAddress&#45;&gt;ooOS.Info.Intf</title>
<path fill="none" stroke="black" d="M388.879,-82.6255C399.275,-86.3098 409.354,-91.0856 418.166,-97.2744 441.771,-113.852 431.107,-133.946 454.166,-151.274 461.124,-156.503 469.121,-160.736 477.371,-164.158"/>
<polygon fill="black" stroke="black" points="476.16,-167.442 486.751,-167.688 478.625,-160.89 476.16,-167.442"/>
</g>
<!-- ooOS.RemoteMacAddress&#45;&gt;Winsock -->
<g id="edge26" class="edge"><title>ooOS.RemoteMacAddress&#45;&gt;Winsock</title>
<path fill="none" stroke="black" d="M371.779,-85.0301C409.823,-93.9261 457.489,-105.072 492.292,-113.21"/>
<polygon fill="black" stroke="black" points="491.666,-116.658 502.2,-115.527 493.26,-109.842 491.666,-116.658"/>
</g>
<!-- ooOS.UserName -->
<g id="node16" class="node"><title>ooOS.UserName</title>
<g id="a_node16"><a xlink:href="ooOS.UserName.html" xlink:title="ooOS.UserName">
<ellipse fill="none" stroke="black" cx="307.676" cy="-378.274" rx="73.387" ry="18"/>
<text text-anchor="middle" x="307.676" y="-374.574" font-family="Times New Roman,serif" font-size="14.00">ooOS.UserName</text>
</a>
</g>
</g>
<!-- ooOS.UserName&#45;&gt;Windows -->
<g id="edge29" class="edge"><title>ooOS.UserName&#45;&gt;Windows</title>
<path fill="none" stroke="black" d="M380.163,-375.179C413.724,-373.725 453.114,-372.02 484.345,-370.667"/>
<polygon fill="black" stroke="black" points="484.765,-374.153 494.604,-370.223 484.462,-367.159 484.765,-374.153"/>
</g>
<!-- ooOS.UserName&#45;&gt;SysUtils -->
<g id="edge30" class="edge"><title>ooOS.UserName&#45;&gt;SysUtils</title>
<path fill="none" stroke="black" d="M358.109,-365.111C377.046,-359.734 398.756,-353.162 418.166,-346.274 446.767,-336.126 478.352,-322.793 502.141,-312.305"/>
<polygon fill="black" stroke="black" points="503.782,-315.406 511.501,-308.148 500.941,-309.008 503.782,-315.406"/>
</g>
<!-- ooOS.UserName&#45;&gt;ooOS.Info.Intf -->
<g id="edge31" class="edge"><title>ooOS.UserName&#45;&gt;ooOS.Info.Intf</title>
<path fill="none" stroke="black" d="M342.348,-362.337C365.131,-350.62 395.149,-333.296 418.166,-313.274 437.491,-296.465 437.334,-287.579 454.166,-268.274 473.989,-245.54 497.684,-220.755 515.087,-202.961"/>
<polygon fill="black" stroke="black" points="517.621,-205.377 522.131,-195.79 512.627,-200.471 517.621,-205.377"/>
</g>
</g>
</svg>
